<svg width="219" height="66" viewBox="0 0 219 66" fill="none" xmlns="http://www.w3.org/2000/svg">
<g clip-path="url(#clip0_57_10477)">
<path d="M0.734779 65.1744V6.95288H28.6604V23.7686L35.1437 14.351C36.6487 12.117 38.684 10.2917 41.1988 8.91977C43.5564 7.63279 46.2873 6.95288 49.0889 6.95288C51.6075 6.95288 54.2245 7.57209 56.6488 8.74574L56.8178 8.82668L56.9828 8.91572C59.3168 10.1906 61.3719 12.0117 62.9239 14.1891L62.9593 14.2376L63.0065 14.3064L68.37 0.821533H99.3329L94.6649 7.71778L159.518 8.23986L163.994 14.2174L164.029 8.22771H192.088C195.786 8.22771 199.334 9.02904 202.638 10.6074C205.825 12.1291 208.646 14.3105 211.031 17.0868C215.695 22.5261 218.265 29.8594 218.265 37.7391C218.265 45.8131 215.578 53.1545 210.693 58.4076L210.627 58.4805L210.579 58.5331C209.224 59.9293 207.813 61.1232 206.379 62.0824C205.047 63.0173 203.538 63.8186 201.632 64.6037L200.241 65.1784H0.734779V65.1744Z" fill="#22B5D3"/>
<path d="M215.118 37.735C215.118 44.9713 212.741 51.5154 208.418 56.1655L208.383 56.2019L208.348 56.2384C207.141 57.4849 205.888 58.5412 204.627 59.3829C203.483 60.1883 202.155 60.8925 200.454 61.5927L199.625 61.9326H3.87823V10.1905H25.5169V33.9308L37.7214 16.2086C38.9355 14.3995 40.6015 12.9102 42.6723 11.781C44.578 10.7409 46.802 10.1905 49.0928 10.1905C51.1557 10.1905 53.3089 10.7045 55.3168 11.6799L55.415 11.7284L55.5093 11.781C57.4347 12.8333 59.1282 14.3348 60.4013 16.1236L60.421 16.1519L63.753 20.976L70.4761 4.06323H93.2975L88.6609 10.9109L157.954 11.4694L167.07 23.6431L167.145 11.4694H192.08C195.318 11.4694 198.422 12.1696 201.306 13.5456C204.096 14.8771 206.572 16.7913 208.666 19.2317C212.827 24.0761 215.118 30.6486 215.118 37.735Z" fill="black"/>
<path d="M50.9317 57.1611H8.51481V14.9661H20.8843V45.0603H42.5741L50.9317 57.1611Z" fill="white"/>
<path d="M155.683 44.9794L164.803 57.1611H120.976V16.241H155.679L164.799 28.4227H136.044C135.428 28.4227 134.807 28.6615 134.268 29.1391C133.805 29.6166 133.494 30.252 133.494 30.8914V31.5268C133.494 32.1622 133.805 32.8017 134.268 33.2792C134.732 33.7568 135.349 33.9956 136.044 33.9956H160.316L164.878 40.1269H136.048C135.431 40.1269 134.811 40.3657 134.272 40.8432C133.73 41.3208 133.498 41.9562 133.498 42.5956C133.498 43.231 133.809 43.8705 134.272 44.348C134.736 44.8256 135.353 45.0644 136.048 45.0644L155.683 44.9794Z" fill="white"/>
<path d="M118.272 46.6509C118.272 46.7318 118.272 46.8896 118.272 46.9706C118.194 49.6781 117.113 52.3047 115.18 54.2149C113.247 56.1251 110.696 57.1612 108.068 57.1612H67.8788L60.9239 47.0515L60.4603 46.4161L49.0967 29.9364L41.2145 41.4018H26.0631L41.521 18.9526C42.3697 17.6777 43.5289 16.7226 44.8452 16.0063C46.1576 15.2899 47.6271 14.9702 49.0967 14.9702C50.5663 14.9702 52.0358 15.3668 53.3482 16.0063C54.6606 16.7226 55.8198 17.7587 56.6724 18.9526L67.7256 34.9548L68.6529 36.3065L73.6785 43.6317V43.7896H73.7571L75.3799 46.1774L75.9221 46.9746H103.36C104.209 46.9746 104.983 46.6549 105.526 46.0195C106.142 45.3841 106.453 44.5868 106.453 43.7896C106.453 42.9154 106.142 42.1181 105.526 41.5596C104.909 40.9242 104.135 40.6045 103.36 40.6045H78.7041L81.486 36.1446L83.4939 32.9595H102.123C102.508 32.9595 102.897 32.8786 103.282 32.7208C103.667 32.5629 103.977 32.3242 104.288 32.0044C104.598 31.6847 104.83 31.369 104.983 30.9684C105.137 30.5718 105.215 30.1711 105.215 29.7745C105.215 28.9003 104.905 28.103 104.288 27.5445C103.671 26.9091 102.897 26.5894 102.123 26.5894H87.4389L93.7769 16.3179H107.38C109.93 16.3179 112.406 17.354 114.182 19.1832C115.958 21.0125 116.964 23.5622 116.964 26.1888C116.964 28.8153 115.958 31.365 114.182 33.1943C112.406 35.0236 107.997 36.0596 107.997 36.0596C110.237 36.0596 112.402 36.776 114.182 38.2086C115.958 39.5604 117.274 41.5515 117.891 43.7815C118.119 44.7406 118.272 45.6957 118.272 46.6509Z" fill="white"/>
<path d="M73.5959 8.83887H84.4173L79.7807 15.6865H88.2051L74.2168 38.6943L76.6883 23.8091H67.647L73.5959 8.83887Z" fill="#22B5D3"/>
<path d="M210.481 37.7351C210.481 43.7855 208.548 49.1196 205.071 52.8591C204.143 53.8142 203.137 54.6884 202.057 55.4047C201.051 56.1211 199.892 56.6796 198.733 57.1571H168.976L159.699 44.7366L193.322 44.9754C197.648 44.9754 199.275 41.6325 199.275 37.1726C199.275 32.2351 196.414 28.8922 192.088 28.8922H183.121L183.353 41.4706L171.605 41.3896L171.758 16.2329H192.088C202.52 16.241 210.481 25.4765 210.481 37.7351Z" fill="white"/>
</g>
<defs>
<clipPath id="clip0_57_10477">
<rect width="219" height="66" fill="white"/>
</clipPath>
</defs>
</svg>
