<svg width="4373" height="1212" viewBox="0 0 4373 1212" fill="none" xmlns="http://www.w3.org/2000/svg">
<g clip-path="url(#clip0_288_19)">
<path d="M1171.91 904.928C1171.91 904.928 1000.92 1028.08 782.719 885.359C782.719 885.359 788.457 874.403 818.257 869.29C818.257 869.29 782.534 849.537 753.994 877.364C753.994 877.364 730.566 902.23 752.019 943.526C752.019 943.526 754.443 912.464 766.827 902.592C766.827 902.592 850.394 980.953 968.432 987.775C979.115 988.41 1007.83 987.961 1018.51 987.062C1052 984.188 1126.59 970.367 1171.91 904.928Z" fill="black"/>
<path d="M1374.33 633.219C1373.81 620.288 1372.72 607.869 1371.17 596.004C1371.13 595.915 1371.11 595.818 1371.12 595.722C1368.58 578.381 1365.25 561.34 1361.13 544.598C1350.14 502.456 1335.23 471.437 1327.3 455.095C1259.94 316.204 1153.46 229.443 1050.47 175.277C939.654 117.04 819.623 94.9503 776.734 89.6616C767.603 88.5421 749.252 86.7263 743.082 86.3825C602.18 78.6169 516.039 0 516.039 0C521.601 49.4584 570.519 87.5196 598.619 105.651C610.288 113.108 638.282 123.88 645.827 126.929C669.872 136.714 678.139 136.802 681.921 149.627V149.786C683.401 154.783 683.349 160.627 678.466 165.158C671.617 171.496 660.062 174.995 650.463 176.617C641.931 178.186 622.813 179.623 615.991 179.261C612.245 179.112 608.367 178.733 604.401 178.23C544.958 170.614 464.75 128.093 464.75 128.093C338.629 76.9334 236.218 136.978 236.218 136.978C334.716 127.106 382.744 174.775 401.861 202.356C407.373 210.309 411.247 219.28 413.258 228.746C413.813 230.968 414.245 233.03 414.695 234.916C414.991 236.125 415.019 237.383 414.776 238.603C414.534 239.823 414.026 240.975 413.29 241.978C412.554 242.98 411.607 243.809 410.515 244.406C409.424 245.003 408.215 245.353 406.974 245.432C405.315 245.538 403.66 245.159 402.214 244.339C366.076 224.207 333.279 228.993 306.889 227.733C284.846 226.704 263.016 222.935 241.903 216.512C74.9199 165.167 30.5144 28.5415 30.5144 28.5415C-7.63301 238.954 165.344 332.308 184.479 341.916C185.916 342.63 187.353 343.353 188.78 344.164C243.357 373.781 255.063 393.446 256.825 403.318C257.707 408.255 254.04 415.465 252.154 417.228C239.77 429.171 205.298 426.113 184.03 422.799C173.691 421.265 139.58 412.829 126.738 406.456C55.8285 371.269 0 283.661 0 283.661C23.6042 479.705 179.429 528.705 213.909 537.22C220.58 538.841 227.053 541.188 233.212 544.219C265.578 560.156 281.69 582.553 289.623 600.632C292.972 608.16 295.362 616.078 296.736 624.202C297.39 628.54 297.509 632.942 297.088 637.309C295.74 651.562 291.051 659.892 284.651 664.299C275.291 670.769 262.29 668.76 250.779 664.599C237.966 659.928 226.389 652.391 216.933 642.563C158.504 582.148 91.8958 595.167 91.8958 595.167C114.425 607.728 145.662 632.144 165.414 666.706C185.502 701.805 194.131 747.227 213.707 780.978C239.012 824.786 271.333 850.903 284.343 860.423C295.131 868.286 310.68 876.289 325.417 883.112C342.675 891.142 358.805 897.603 364.86 900.459C373.753 904.672 381.659 908.789 388.658 912.799C406.833 923.192 398.292 951.045 377.402 949.635C370.949 949.188 364.477 949.064 358.011 949.265C309.816 950.781 284.519 970.226 284.519 970.226C310.08 974.316 356.504 986.163 392.853 1011.65C399.106 1016.06 405.314 1020.72 411.478 1025.62C457.364 1062.01 502.06 1110.54 563.221 1141.63C632.905 1177.09 710.32 1211.84 854.087 1211.84C953.977 1211.84 1012.86 1187.5 1032.25 1180.11C1060.63 1169.39 1088.22 1156.67 1114.81 1142.06C1238.21 1066.77 1329.39 943.906 1362.88 798.95C1375 736.746 1376.12 678.623 1374.33 633.219ZM1191.18 595.317C1191.68 595.325 1192.16 595.502 1192.54 595.819C1192.91 596.138 1193.16 596.575 1193.25 597.057C1193.34 597.538 1193.25 598.035 1193.02 598.464C1192.77 598.898 1192.39 599.232 1191.92 599.407C1170.68 607.587 1127.95 633.149 1109.63 709.342C1109.52 709.791 1109.27 710.192 1108.91 710.486C1108.56 710.779 1108.11 710.95 1107.65 710.972C1107.19 710.992 1106.73 710.86 1106.35 710.596C1105.97 710.331 1105.68 709.95 1105.54 709.509C1097.18 683.639 1076.69 594.303 1191.18 595.343V595.317ZM1125.16 586.723C1136.62 580.605 1147.2 571.359 1155.37 564.686C1155.37 564.686 1162.13 558.587 1173 549.428C1181.26 542.518 1215.46 515.14 1221.11 510.556C1236.8 497.854 1252.71 487.735 1278.71 492.98C1290.72 518.992 1300.3 546.055 1307.34 573.827C1265.34 569.481 1202.31 569.014 1125.16 586.749V586.723ZM276.763 481.662C276.763 481.662 328.995 456.1 402.875 473.729C402.875 473.729 409.785 398.858 296.506 310.263C296.891 310.199 297.28 310.169 297.67 310.175C329.732 307.485 362.012 309.145 393.629 315.111C405.026 317.262 433.292 327.046 460.052 327.857C483.568 328.58 504.66 324.27 537.784 313.225C562.648 304.966 593.163 288.006 617.578 277.773C656.087 261.616 692.894 248.42 692.894 248.685C744.229 230.087 798.42 220.609 853.02 220.681C1019.3 220.681 1165.35 307.24 1248.56 437.81C1244.35 436.16 1239.86 435.331 1235.34 435.368C1227.08 435.465 1217.93 439.59 1206.62 446.774C1193.61 455.121 1183.47 466.607 1181.94 468.132C1171.84 478.242 1142.04 511.191 1130.82 523.663C1110.16 546.643 1083.72 568.82 1084.6 503.822C1084.6 502.57 1084.69 501.31 1084.69 500.058C1084.69 500.058 1084.42 500.508 1084.06 501.222C1081.99 505.356 1074.82 520.437 1071.85 537.582C1068.98 554.215 1070.09 572.84 1083.61 585.18C1088.17 589.542 1094.03 592.286 1100.3 592.99C1096.19 594.106 1092.04 595.282 1087.86 596.516C1087.86 596.516 1054.29 605.33 1000.15 593.386C1008.5 591.008 1015.62 585.547 1020.09 578.111C1030.32 561.363 1030.77 544.801 1027.78 531.156C1024.96 519.221 1019.64 508.023 1012.17 498.304L1011.99 498.128V499.379C1013.07 538.251 1003.02 549.746 991.164 550.186C989.264 550.281 987.361 550.1 985.514 549.649C977.581 547.947 969.648 542.738 963.875 538.251C958.878 534.303 942.721 520.481 942.721 520.481L862.204 455.042C821.184 419.308 783.124 422.093 752.971 437.175C728.821 449.207 709.782 469.04 698.209 483.222C693.695 488.57 689.529 494.202 685.737 500.084C745.338 474.046 788.157 486.977 807.09 495.95C814.273 499.362 822.858 505.285 830.791 510.318C856.607 526.722 914.622 563.584 939.081 579.072C889.678 570.61 811.171 563.205 707.728 572.373C697.151 573.36 686.636 574.885 676.227 576.859L410.834 629.253C397.642 631.857 384.883 636.308 372.933 642.475C369.311 587.736 349.171 517.89 276.763 481.662ZM808.703 589.076C808.464 589.505 808.084 589.839 807.627 590.019C786.385 598.199 743.655 623.77 725.339 699.954C725.228 700.403 724.975 700.804 724.617 701.098C724.26 701.392 723.818 701.563 723.356 701.585C722.891 701.604 722.433 701.471 722.051 701.206C721.672 700.94 721.388 700.56 721.24 700.122C712.885 674.189 692.392 584.854 806.887 585.903C807.379 585.913 807.853 586.094 808.227 586.414C808.597 586.734 808.847 587.17 808.933 587.652C809.02 588.133 808.939 588.63 808.703 589.058V589.076ZM852.905 1158.33H848.155C844.999 1158.33 841.847 1158.27 838.697 1158.14L833.964 1157.98C639.437 1150.25 475.415 1024 412.077 849.423C411.97 849.119 411.841 848.825 411.689 848.541C410.508 846.011 404.752 833.9 400.901 828.761L400.513 828.259C392.868 818.903 382.088 812.639 370.175 810.63C358.055 808.479 335.077 796.095 321.071 777.134C321.071 777.134 343.159 773.811 357.606 750.691C361.942 743.789 368.712 717.522 371.188 701.506C377.702 690.928 391.857 676.878 421.429 674.692C424.663 674.427 461.092 670.831 461.092 670.831L638.379 649.456L648.075 648.283C651.576 647.725 655.141 647.696 658.651 648.195C670.586 649.808 688.091 652.417 693.115 692.806C693.476 696.041 694.728 710.047 697.425 720.633C706.512 755.821 738.622 831.582 845.819 829.255C985.214 826.205 1010.89 720.545 1010.89 720.545L1026.23 682.581C1027.22 680.148 1030.54 671.122 1037.54 667.226C1041.07 665.34 1051.46 662.466 1059.08 666.239C1062.74 668.233 1065.9 671.026 1068.33 674.41C1074.17 683.224 1079.01 702.951 1083.69 722.608C1093.92 765.702 1133.04 827.994 1219.04 823.093C1219.04 823.093 1278.19 824.151 1315.01 769.06C1310.32 796.465 1303.2 823.398 1293.73 849.537C1228.29 1029.7 1055.67 1158.33 852.905 1158.33Z" fill="black"/>
</g>
<path d="M1872.23 768.271C1809.74 768.271 1756.33 760.326 1712 744.435C1667.67 728.545 1633.75 704.908 1610.25 673.525C1586.75 641.744 1575 602.614 1575 556.135C1575 509.259 1586.75 470.129 1610.25 438.746C1633.75 407.363 1667.67 383.726 1712 367.835C1756.33 351.945 1809.74 344 1872.23 344C1935.26 344 1988.94 351.945 2033.27 367.835C2077.6 383.726 2111.51 407.363 2135.02 438.746C2158.52 470.129 2170.27 509.259 2170.27 556.135C2170.27 602.614 2158.52 641.744 2135.02 673.525C2111.51 704.908 2077.6 728.545 2033.27 744.435C1988.94 760.326 1935.26 768.271 1872.23 768.271ZM1872.23 669.95C1891.46 669.95 1908.29 667.765 1922.71 663.395C1937.66 658.628 1949.95 652.073 1959.56 643.731C1969.71 635.388 1977.19 625.457 1981.99 613.936C1986.8 602.019 1989.2 589.108 1989.2 575.204V537.067C1989.2 523.163 1986.8 510.451 1981.99 498.93C1977.19 487.013 1969.71 476.883 1959.56 468.54C1949.95 460.198 1937.66 453.842 1922.71 449.472C1908.29 444.705 1891.46 442.321 1872.23 442.321C1853 442.321 1835.91 444.705 1820.96 449.472C1806.54 453.842 1794.52 460.198 1784.91 468.54C1775.29 476.883 1768.08 487.013 1763.27 498.93C1758.47 510.451 1756.06 523.163 1756.06 537.067V575.204C1756.06 589.108 1758.47 602.019 1763.27 613.936C1768.08 625.457 1775.29 635.388 1784.91 643.731C1794.52 652.073 1806.54 658.628 1820.96 663.395C1835.91 667.765 1853 669.95 1872.23 669.95Z" fill="black"/>
<path d="M2528.39 768.271C2465.9 768.271 2413.29 760.326 2370.56 744.435C2328.37 728.545 2296.32 704.908 2274.42 673.525C2253.06 641.744 2242.38 602.614 2242.38 556.135C2242.38 486.218 2266.41 433.383 2314.48 397.63C2363.09 361.877 2434.39 344 2528.39 344C2581.81 344 2628.27 350.753 2667.8 364.26C2707.86 377.37 2738.83 397.034 2760.73 423.253C2782.63 449.472 2793.58 481.65 2793.58 519.786H2624.53C2624.53 503.896 2620.8 490.191 2613.32 478.67C2605.84 467.15 2594.89 458.211 2580.47 451.855C2566.58 445.499 2548.96 442.321 2527.59 442.321C2502.49 442.321 2482.19 446.294 2466.7 454.239C2451.75 462.184 2440.8 473.307 2433.86 487.608C2426.91 501.91 2423.44 518.396 2423.44 537.067V575.204C2423.44 593.875 2426.91 610.361 2433.86 624.662C2441.33 638.963 2452.55 650.087 2467.51 658.032C2482.46 665.977 2501.96 669.95 2525.99 669.95C2549.49 669.95 2568.72 666.97 2583.68 661.011C2599.16 655.052 2610.65 646.511 2618.13 635.388C2626.14 623.868 2630.14 610.361 2630.14 594.868H2793.58C2793.58 632.21 2783.17 663.792 2762.34 689.614C2741.51 715.435 2711.33 735.1 2671.8 748.606C2632.28 761.716 2584.48 768.271 2528.39 768.271Z" fill="black"/>
<path d="M3895.96 351.151V393.459L3640.39 662.799H3902.37V761.12H3368V718.813L3623.57 449.472H3387.22V351.151H3895.96ZM3343.45 713.019L3349.2 706.959V761.12H3343.45V713.019ZM3411.77 431.216H3670.93L3392.54 724.605V742.864H3877.83V681.056H3593.03L3871.42 387.665V369.408H3411.77V431.216Z" fill="black"/>
<path d="M3066.39 351.151V656.245H3349.2V761.12H2889.33V351.151H3066.39ZM3373.74 761.12H3368V718.813L3373.74 712.753V761.12ZM2913.88 742.864H3324.65V674.501H3041.84V369.408H2913.88V742.864Z" fill="black"/>
<path d="M3927.55 868.381V798.066H4373V868.381H3927.55Z" fill="black"/>
<defs>
<clipPath id="clip0_288_19">
<rect width="1375" height="1212" fill="white"/>
</clipPath>
</defs>
</svg>
