<svg width="32" height="32" viewBox="0 0 32 32" fill="none" xmlns="http://www.w3.org/2000/svg">
<path d="M10.4 2.66667H21.6C25.8666 2.66667 29.3333 6.13334 29.3333 10.4V21.6C29.3333 23.651 28.5185 25.618 27.0683 27.0683C25.618 28.5186 23.651 29.3333 21.6 29.3333H10.4C6.13329 29.3333 2.66663 25.8667 2.66663 21.6V10.4C2.66663 8.349 3.48139 6.38199 4.93167 4.93171C6.38195 3.48143 8.34895 2.66667 10.4 2.66667ZM10.1333 5.33334C8.86025 5.33334 7.63936 5.83905 6.73918 6.73923C5.83901 7.6394 5.33329 8.8603 5.33329 10.1333V21.8667C5.33329 24.52 7.47996 26.6667 10.1333 26.6667H21.8666C23.1397 26.6667 24.3606 26.161 25.2607 25.2608C26.1609 24.3606 26.6666 23.1397 26.6666 21.8667V10.1333C26.6666 7.48001 24.52 5.33334 21.8666 5.33334H10.1333ZM23 7.33334C23.442 7.33334 23.8659 7.50893 24.1785 7.82149C24.491 8.13405 24.6666 8.55798 24.6666 9.00001C24.6666 9.44203 24.491 9.86596 24.1785 10.1785C23.8659 10.4911 23.442 10.6667 23 10.6667C22.5579 10.6667 22.134 10.4911 21.8214 10.1785C21.5089 9.86596 21.3333 9.44203 21.3333 9.00001C21.3333 8.55798 21.5089 8.13405 21.8214 7.82149C22.134 7.50893 22.5579 7.33334 23 7.33334ZM16 9.33334C17.7681 9.33334 19.4638 10.0357 20.714 11.286C21.9642 12.5362 22.6666 14.2319 22.6666 16C22.6666 17.7681 21.9642 19.4638 20.714 20.7141C19.4638 21.9643 17.7681 22.6667 16 22.6667C14.2318 22.6667 12.5362 21.9643 11.2859 20.7141C10.0357 19.4638 9.33329 17.7681 9.33329 16C9.33329 14.2319 10.0357 12.5362 11.2859 11.286C12.5362 10.0357 14.2318 9.33334 16 9.33334ZM16 12C14.9391 12 13.9217 12.4214 13.1715 13.1716C12.4214 13.9217 12 14.9391 12 16C12 17.0609 12.4214 18.0783 13.1715 18.8284C13.9217 19.5786 14.9391 20 16 20C17.0608 20 18.0782 19.5786 18.8284 18.8284C19.5785 18.0783 20 17.0609 20 16C20 14.9391 19.5785 13.9217 18.8284 13.1716C18.0782 12.4214 17.0608 12 16 12Z" fill="white"/>
</svg>
